<svg width="70" height="64" viewBox="0 0 70 64" fill="none" xmlns="http://www.w3.org/2000/svg">
<g clip-path="url(#clip0_392_349)">
<path d="M61.8428 10.2425L51.205 0.516535C50.8467 0.188976 50.3506 9.84315e-10 49.827 9.72261e-10L9.53569 0C8.46088 0 7.59277 0.793701 7.59277 1.77638L7.59277 62.2236C7.59277 63.2063 8.46088 64 9.53569 64L60.4648 64C61.5396 64 62.4077 63.2063 62.4077 62.2236L62.4077 11.5024C62.4077 11.0236 62.201 10.5701 61.8428 10.2425ZM51.7699 6.07244L55.766 9.72598L51.7699 9.72598L51.7699 6.07244ZM11.4786 60.4472L11.4786 3.55276L47.8841 3.55276L47.8841 11.4898C47.8841 12.4724 48.7522 13.2661 49.827 13.2661L58.5081 13.2661L58.5081 60.4472L11.4786 60.4472Z" fill="#111111"/>
<path d="M53.12 17.3984L32.3267 17.3984C31.2519 17.3984 30.3838 18.1921 30.3838 19.1748C30.3838 20.1575 31.2519 20.9512 32.3267 20.9512L53.12 20.9512C54.1948 20.9512 55.0629 20.1575 55.0629 19.1748C55.0629 18.1921 54.1948 17.3984 53.12 17.3984Z" fill="#111111"/>
<path d="M53.12 34.1795L32.3267 34.1795C31.2519 34.1795 30.3838 34.9732 30.3838 35.9559C30.3838 36.9386 31.2519 37.7323 32.3267 37.7323L53.12 37.7323C54.1948 37.7323 55.0629 36.9386 55.0629 35.9559C55.0629 34.9732 54.1948 34.1795 53.12 34.1795Z" fill="#111111"/>
<path d="M53.12 50.9732L32.3267 50.9732C31.2519 50.9732 30.3838 51.7669 30.3838 52.7496C30.3838 53.7323 31.2519 54.526 32.3267 54.526L53.12 54.526C54.1948 54.526 55.0629 53.7323 55.0629 52.7496C55.0629 51.7669 54.1948 50.9732 53.12 50.9732Z" fill="#111111"/>
<path d="M26.0576 13.2032L16.8804 13.2032C15.8056 13.2032 14.9375 13.9969 14.9375 14.9795L14.9375 23.3701C14.9375 24.3528 15.8056 25.1465 16.8804 25.1465L26.0576 25.1465C27.1324 25.1465 28.0005 24.3528 28.0005 23.3701L28.0005 14.9795C28.0005 13.9969 27.1324 13.2032 26.0576 13.2032ZM24.1147 21.5937L18.8233 21.5937L18.8233 16.7559L24.1147 16.7559L24.1147 21.5937Z" fill="#111111"/>
<path d="M26.0576 29.9969L16.8804 29.9969C15.8056 29.9969 14.9375 30.7906 14.9375 31.7732L14.9375 40.1638C14.9375 41.1465 15.8056 41.9402 16.8804 41.9402L26.0576 41.9402C27.1324 41.9402 28.0005 41.1465 28.0005 40.1638L28.0005 31.7732C28.0005 30.7906 27.1324 29.9969 26.0576 29.9969ZM24.1147 38.3874L18.8233 38.3874L18.8233 33.5496L24.1147 33.5496L24.1147 38.3874Z" fill="#111111"/>
<path d="M29.3917 47.5843C28.62 46.8913 27.3936 46.8913 26.6358 47.5843L20.7243 52.989L18.2716 50.7465C17.5137 50.0535 16.2873 50.0535 15.5157 50.7465C14.7578 51.4394 14.7578 52.5606 15.5157 53.2661L19.3464 56.7685C19.7322 57.1213 20.2283 57.285 20.7243 57.285C21.2204 57.285 21.7165 57.1087 22.1023 56.7685L29.3917 50.1039C30.1495 49.411 30.1495 48.2898 29.3917 47.5843Z" fill="#111111"/>
</g>
<defs>
<clipPath id="clip0_392_349">
<rect width="70" height="64" fill="white"/>
</clipPath>
</defs>
</svg>
