<svg width="24" height="24" viewBox="0 0 24 24" fill="none" xmlns="http://www.w3.org/2000/svg">
<path fill-rule="evenodd" clip-rule="evenodd" d="M18.1716 1.00002C18.702 1.00002 19.2107 1.21073 19.5858 1.58581L22.4142 4.41423C22.7893 4.78931 23 5.29801 23 5.82845L23 20C23 21.6569 21.6569 23 20 23L4 23C2.34315 23 1 21.6569 1 20L1 4.00002C1 2.34317 2.34315 1.00002 4 1.00002L18.1716 1.00002ZM4 3.00002C3.44772 3.00002 3 3.44774 3 4.00002L3 20C3 20.5523 3.44772 21 4 21L5 21L5 15C5 13.3431 6.34315 12 8 12L16 12C17.6569 12 19 13.3431 19 15L19 21L20 21C20.5523 21 21 20.5523 21 20L21 6.82845C21 6.29801 20.7893 5.78931 20.4142 5.41423L18.5858 3.58581C18.2107 3.21073 17.702 3.00002 17.1716 3.00002L17 3.00002L17 5.00002C17 6.65687 15.6569 8.00002 14 8.00002L10 8.00002C8.34315 8.00002 7 6.65687 7 5.00002L7 3.00002L4 3.00002ZM17 21L17 15C17 14.4477 16.5523 14 16 14L8 14C7.44772 14 7 14.4477 7 15L7 21L17 21ZM9 3.00002L15 3.00002L15 5.00002C15 5.5523 14.5523 6.00002 14 6.00002L10 6.00002C9.44772 6.00002 9 5.5523 9 5.00002L9 3.00002Z" fill="#111111"/>
</svg>
