<svg width="29" height="29" viewBox="0 0 29 29" fill="none" xmlns="http://www.w3.org/2000/svg">
<path d="M19.7945 5.58024L21.6163 7.40211L10.8314 7.40211L10.8244 7.40211C9.73751 7.40209 8.85079 7.40208 8.1332 7.46712C7.3901 7.53448 6.72552 7.67817 6.11738 8.02928C5.40575 8.44014 4.8148 9.03108 4.40393 9.74272C4.05283 10.3509 3.90913 11.0154 3.84179 11.7585C3.77674 12.4763 3.77675 13.3632 3.77676 14.4503L3.77676 14.4568L3.77676 14.5433L3.77676 14.5503C3.77675 15.6372 3.77674 16.5239 3.84177 17.2415L3.9615 17.2306L3.84177 17.2415C3.90913 17.9845 4.05282 18.6491 4.40393 19.2573L4.53384 19.1823L4.40393 19.2573C4.81479 19.969 5.40575 20.5599 6.11739 20.9708L6.19116 20.843L6.11739 20.9708C6.72552 21.3218 7.3901 21.4655 8.13319 21.5329L8.13321 21.5329C8.85082 21.5979 9.73757 21.5979 10.8245 21.5979L10.8315 21.5979L19.333 21.5979C19.9163 21.5979 20.3893 21.125 20.3893 20.5417C20.3893 19.9584 19.9163 19.4854 19.333 19.4854L10.8747 19.4854C9.72584 19.4854 8.93494 19.4844 8.32389 19.429L8.32387 19.429C7.72731 19.375 7.40664 19.2758 7.1736 19.1413C6.78313 18.9158 6.45886 18.5915 6.2334 18.2011C6.09887 17.9681 5.99973 17.6474 5.94566 17.0508C5.89027 16.4398 5.88926 15.6488 5.88926 14.5C5.88926 13.3512 5.89027 12.5603 5.94566 11.9492C5.99973 11.3526 6.09888 11.032 6.23342 10.799C6.45887 10.4085 6.78314 10.0842 7.17363 9.85875C7.40665 9.72422 7.7273 9.62508 8.32389 9.571C8.93495 9.51562 9.72586 9.51461 10.8747 9.51461L21.6163 9.51461L19.7945 11.3365C19.382 11.749 19.382 12.4177 19.7945 12.8302C20.207 13.2427 20.8757 13.2427 21.2882 12.8302L24.9132 9.20524C25.3257 8.79275 25.3257 8.12396 24.9132 7.71147L21.2882 4.08647L21.1823 4.19233L21.2882 4.08647C20.8757 3.67399 20.207 3.67399 19.7945 4.08647C19.382 4.49896 19.382 5.16775 19.7945 5.58024Z" fill="#111111" stroke="#111111" stroke-width="0.3"/>
</svg>
