<svg width="32" height="32" viewBox="0 0 32 32" fill="none" xmlns="http://www.w3.org/2000/svg">
<path d="M23.9997 8.00002L22.9318 24.0172C22.8383 25.42 22.7915 26.1215 22.4886 26.6533C22.2218 27.1216 21.8194 27.498 21.3345 27.7331C20.7837 28 20.0806 28 18.6746 28L13.3247 28C11.9187 28 11.2157 28 10.6649 27.7331C10.1799 27.498 9.77753 27.1216 9.51077 26.6533C9.20777 26.1215 9.16101 25.42 9.06749 24.0172L7.99967 8.00002M5.33301 8.00002L26.6663 8.00002M21.333 8.00002L20.9722 6.91744C20.6225 5.86835 20.4475 5.3438 20.1233 4.95599C19.8369 4.61352 19.4691 4.34844 19.0537 4.18506C18.5831 4.00002 18.0303 4.00002 16.9245 4.00002L15.0749 4.00002C13.969 4.00002 13.4162 4.00002 12.9457 4.18506C12.5302 4.34844 12.1624 4.61352 11.8761 4.95599C11.5517 5.3438 11.3769 5.86835 11.0272 6.91744L10.6663 8.00002M18.6663 13.3333L18.6663 22.6667M13.333 13.3333L13.333 22.6667" stroke="#111111" stroke-width="2" stroke-linecap="round" stroke-linejoin="round"/>
</svg>
